<?xml version="1.0" standalone="no"?>
<!DOCTYPE svg PUBLIC "-//W3C//DTD SVG 20010904//EN"
 "http://www.w3.org/TR/2001/REC-SVG-20010904/DTD/svg10.dtd">
<svg version="1.0" xmlns="http://www.w3.org/2000/svg"
 width="640.000000pt" height="422.000000pt" viewBox="0 0 640.000000 422.000000"
 preserveAspectRatio="xMidYMid meet">
<metadata>
Created by potrace 1.16, written by Peter Selinger 2001-2019
</metadata>
<g transform="translate(0.000000,422.000000) scale(0.100000,-0.100000)"
fill="#000000" stroke="none">
<path d="M0 2110 l0 -2110 3200 0 3200 0 0 2110 0 2110 -3200 0 -3200 0 0
-2110z m3710 846 l0 -484 -26 -6 c-75 -19 -101 -112 -43 -160 17 -14 39 -26
49 -26 20 0 30 -26 20 -54 -6 -17 -26 -18 -409 -17 -447 2 -437 1 -488 68
l-28 36 -3 491 c-2 319 0 503 7 526 14 47 61 91 108 100 21 4 212 8 426 9
l387 1 0 -484z m-2651 -1432 c17 -14 31 -30 31 -35 0 -17 -22 -9 -42 16 -34
43 -128 29 -128 -19 0 -29 22 -48 83 -72 95 -37 123 -93 74 -149 -43 -51 -175
-39 -193 17 -10 33 4 33 35 -1 23 -25 37 -31 70 -31 43 0 81 26 81 55 0 25
-44 62 -89 76 -98 29 -126 120 -47 155 49 21 91 17 125 -12z m3584 -2 c52 -30
72 -67 72 -132 0 -71 -21 -104 -86 -138 -80 -42 -163 -20 -217 59 -20 28 -23
44 -20 92 4 49 9 62 38 92 19 20 48 40 65 45 40 12 111 4 148 -18z m-3178
-111 c39 -72 73 -127 77 -123 3 4 36 61 71 127 61 112 97 152 97 108 5 -306 7
-283 -17 -283 -22 0 -22 4 -25 120 l-3 119 -69 -126 -69 -126 -31 56 c-17 31
-49 89 -71 129 l-40 73 -5 -125 -6 -125 -2 153 c-2 119 1 152 11 152 7 0 44
-58 82 -129z m706 2 c83 -176 83 -173 59 -173 -13 0 -25 14 -39 45 l-20 45
-76 0 -75 0 -22 -45 c-42 -86 -36 -44 8 63 72 172 82 192 94 192 6 0 38 -57
71 -127z m504 102 c39 -38 27 -102 -22 -124 -24 -11 -24 -11 -6 -42 29 -50 73
-99 89 -99 8 0 14 -4 14 -10 0 -5 -11 -10 -25 -10 -29 0 -55 24 -102 93 -24
35 -39 47 -58 47 -24 0 -25 -2 -25 -65 0 -58 -2 -65 -20 -65 -19 0 -20 7 -20
150 l0 150 75 0 c67 0 79 -3 100 -25z m555 15 c0 -6 -27 -10 -60 -10 l-60 0 0
-140 c0 -133 -1 -140 -20 -140 -19 0 -20 7 -20 140 l0 140 -54 0 c-30 0 -58 5
-61 10 -4 6 43 10 134 10 87 0 141 -4 141 -10z m415 -15 c18 -17 25 -35 25
-63 0 -64 -48 -99 -125 -90 l-35 4 0 -63 c0 -56 -2 -63 -20 -63 -19 0 -20 7
-20 150 l0 150 75 0 c67 0 79 -3 100 -25z m450 0 c39 -38 27 -102 -22 -124
-24 -11 -24 -11 -6 -42 29 -50 73 -99 89 -99 8 0 14 -4 14 -10 0 -5 -11 -10
-25 -10 -29 0 -55 24 -102 93 -24 35 -39 47 -58 47 -24 0 -25 -2 -25 -65 0
-58 -2 -65 -20 -65 -19 0 -20 7 -20 150 l0 150 75 0 c67 0 79 -3 100 -25z
m1080 15 c-3 -5 -40 -10 -81 -10 l-74 0 0 -55 0 -55 65 0 c37 0 65 -4 65 -10
0 -6 -28 -10 -65 -10 l-65 0 0 -75 c0 -68 -2 -75 -20 -75 -19 0 -20 7 -20 150
l0 150 101 0 c64 0 98 -4 94 -10z m445 0 c0 -6 -33 -10 -80 -10 l-80 0 0 -55
0 -55 70 0 c40 0 70 -4 70 -10 0 -6 -30 -10 -70 -10 l-70 0 0 -65 0 -65 80 0
c47 0 80 -4 80 -10 0 -6 -40 -10 -100 -10 l-100 0 0 150 0 150 100 0 c60 0
100 -4 100 -10z"/>
<path d="M2887 3348 c-34 -26 -37 -66 -37 -450 0 -359 1 -380 18 -372 9 5 187
10 395 12 l377 3 0 409 0 410 -368 0 c-279 0 -372 -3 -385 -12z m553 -273 l0
-35 -200 0 -200 0 0 35 0 35 200 0 200 0 0 -35z m0 -220 l0 -35 -200 0 -200 0
0 35 0 35 200 0 200 0 0 -35z"/>
<path d="M2905 2458 c-33 -19 -44 -41 -45 -86 0 -34 6 -48 26 -67 l27 -25 323
0 323 0 -15 35 c-7 19 -14 46 -14 60 0 14 7 41 14 60 l15 35 -317 0 c-220 -1
-323 -4 -337 -12z"/>
<path d="M4472 1496 c-36 -34 -37 -36 -37 -106 0 -70 1 -72 39 -107 35 -33 42
-35 87 -31 55 6 85 27 105 75 43 100 -19 203 -121 203 -26 0 -45 -9 -73 -34z"/>
<path d="M3510 1456 l0 -76 44 0 c35 0 48 5 60 22 38 54 7 116 -62 125 l-42 6
0 -77z"/>
</g>
</svg>
